<svg width="400" height="70" viewBox="0 0 400 70" fill="none" xmlns="http://www.w3.org/2000/svg">
<g clip-path="url(#clip0_26_8)">
<path d="M4 6.25C4 5.00736 5.00811 4 6.25167 4C7.49523 4 8.50334 5.00736 8.50334 6.25V64.75C8.50334 65.9926 7.49523 67 6.25167 67C5.00811 67 4 65.9926 4 64.75V6.25Z" fill="#FB9533"/>
<path d="M35.5234 10.6472C35.5234 9.48605 34.6316 8.50904 33.4695 8.50071C33.4036 8.50024 33.3377 8.5 33.2717 8.5C18.3489 8.5 6.25167 20.5883 6.25167 35.5C6.25167 50.4117 18.3489 62.5 33.2717 62.5C33.3377 62.5 33.4036 62.4998 33.4695 62.4993C34.6316 62.491 35.5234 61.514 35.5234 60.3528V60.1426C35.5234 58.9357 34.4795 58 33.2717 58C20.8361 58 10.755 47.9264 10.755 35.5C10.755 23.0736 20.8361 13 33.2717 13C34.4795 13 35.5234 12.0643 35.5234 10.8574V10.6472Z" fill="#FB9533"/>
<path d="M48.7632 26.68C48.7632 29.1653 46.7469 31.18 44.2598 31.18C41.7727 31.18 39.7565 29.1653 39.7565 26.68C39.7565 24.1947 41.7727 22.18 44.2598 22.18C46.7469 22.18 48.7632 24.1947 48.7632 26.68Z" fill="#FB9533"/>
<path d="M48.7632 44.32C48.7632 46.8053 46.7469 48.82 44.2598 48.82C41.7727 48.82 39.7565 46.8053 39.7565 44.32C39.7565 41.8347 41.7727 39.82 44.2598 39.82C46.7469 39.82 48.7632 41.8347 48.7632 44.32Z" fill="#FB9533"/>
<path d="M71.439 48C70.7483 48 70.1317 47.7903 69.589 47.371C69.0463 46.927 68.775 46.3843 68.775 45.743V24.357C68.775 23.7157 68.9847 23.1853 69.404 22.766C69.848 22.322 70.3907 22.1 71.032 22.1H81.688C82.9707 22.1 84.167 22.4453 85.277 23.136C86.4117 23.802 87.3243 24.7393 88.015 25.948C88.7057 27.132 89.051 28.501 89.051 30.055C89.051 30.9923 88.8537 31.905 88.459 32.793C88.089 33.681 87.571 34.4827 86.905 35.198C86.2637 35.9133 85.536 36.4683 84.722 36.863L84.759 36.012C85.4497 36.382 86.017 36.826 86.461 37.344C86.9297 37.8373 87.2873 38.38 87.534 38.972C87.8053 39.5393 87.9657 40.156 88.015 40.822C88.1137 41.4387 88.1753 41.9813 88.2 42.45C88.2493 42.9187 88.3233 43.3133 88.422 43.634C88.5453 43.9547 88.7673 44.2013 89.088 44.374C89.6307 44.6947 89.9637 45.1633 90.087 45.78C90.235 46.372 90.0993 46.9023 89.68 47.371C89.4087 47.6917 89.0633 47.9013 88.644 48C88.2247 48.074 87.8053 48.074 87.386 48C86.9667 47.9013 86.6213 47.778 86.35 47.63C85.9307 47.3833 85.5113 47.0257 85.092 46.557C84.6727 46.0637 84.3273 45.41 84.056 44.596C83.8093 43.782 83.686 42.7337 83.686 41.451C83.686 41.0317 83.612 40.6493 83.464 40.304C83.316 39.934 83.1063 39.6257 82.835 39.379C82.5637 39.1077 82.2183 38.9103 81.799 38.787C81.3797 38.639 80.8863 38.565 80.319 38.565H72.845L73.4 37.714V45.743C73.4 46.3843 73.2273 46.927 72.882 47.371C72.5367 47.7903 72.0557 48 71.439 48ZM72.882 34.754H81.503C81.947 34.754 82.3787 34.5567 82.798 34.162C83.2173 33.7427 83.5627 33.1877 83.834 32.497C84.1053 31.7817 84.241 31.0047 84.241 30.166C84.241 29.0807 83.945 28.1803 83.353 27.465C82.7857 26.725 82.169 26.355 81.503 26.355H72.956L73.4 25.171V35.642L72.882 34.754ZM96.4334 22.1H108.828C109.47 22.1 110 22.3097 110.419 22.729C110.863 23.1237 111.085 23.6417 111.085 24.283C111.085 24.8997 110.863 25.4053 110.419 25.8C110 26.17 109.47 26.355 108.828 26.355H98.4684L98.8014 25.726V32.941L98.5054 32.645H107.163C107.805 32.645 108.335 32.8547 108.754 33.274C109.198 33.6687 109.42 34.1867 109.42 34.828C109.42 35.4447 109.198 35.9503 108.754 36.345C108.335 36.715 107.805 36.9 107.163 36.9H98.6164L98.8014 36.604V44.078L98.5054 43.745H108.828C109.47 43.745 110 43.967 110.419 44.411C110.863 44.8303 111.085 45.3237 111.085 45.891C111.085 46.5077 110.863 47.0133 110.419 47.408C110 47.8027 109.47 48 108.828 48H96.4334C95.792 48 95.2494 47.7903 94.8054 47.371C94.386 46.927 94.1764 46.3843 94.1764 45.743V24.357C94.1764 23.7157 94.386 23.1853 94.8054 22.766C95.2494 22.322 95.792 22.1 96.4334 22.1ZM134.257 22.026C134.874 22.026 135.404 22.2357 135.848 22.655C136.317 23.0497 136.551 23.5553 136.551 24.172C136.551 24.4927 136.477 24.8257 136.329 25.171L127.19 46.557C126.968 47.0503 126.648 47.4203 126.228 47.667C125.834 47.889 125.427 48 125.007 48C124.613 47.9753 124.23 47.852 123.86 47.63C123.49 47.3833 123.207 47.038 123.009 46.594L113.87 25.134C113.796 24.986 113.747 24.838 113.722 24.69C113.698 24.5173 113.685 24.357 113.685 24.209C113.685 23.4937 113.944 22.951 114.462 22.581C114.98 22.1863 115.474 21.989 115.942 21.989C116.88 21.989 117.558 22.47 117.977 23.432L126.08 42.487L124.785 42.524L132.222 23.432C132.642 22.4947 133.32 22.026 134.257 22.026ZM145.051 45.743C145.051 46.3843 144.817 46.927 144.348 47.371C143.88 47.7903 143.337 48 142.72 48C142.03 48 141.475 47.7903 141.055 47.371C140.636 46.927 140.426 46.3843 140.426 45.743V24.357C140.426 23.7157 140.648 23.1853 141.092 22.766C141.536 22.322 142.104 22.1 142.794 22.1C143.386 22.1 143.904 22.322 144.348 22.766C144.817 23.1853 145.051 23.7157 145.051 24.357V45.743ZM169.523 22.026C170.139 22.026 170.67 22.2357 171.114 22.655C171.582 23.0497 171.817 23.5553 171.817 24.172C171.817 24.4927 171.743 24.8257 171.595 25.171L162.456 46.557C162.234 47.0503 161.913 47.4203 161.494 47.667C161.099 47.889 160.692 48 160.273 48C159.878 47.9753 159.496 47.852 159.126 47.63C158.756 47.3833 158.472 47.038 158.275 46.594L149.136 25.134C149.062 24.986 149.012 24.838 148.988 24.69C148.963 24.5173 148.951 24.357 148.951 24.209C148.951 23.4937 149.21 22.951 149.728 22.581C150.246 22.1863 150.739 21.989 151.208 21.989C152.145 21.989 152.823 22.47 153.243 23.432L161.346 42.487L160.051 42.524L167.488 23.432C167.907 22.4947 168.585 22.026 169.523 22.026ZM177.949 22.1H190.344C190.985 22.1 191.516 22.3097 191.935 22.729C192.379 23.1237 192.601 23.6417 192.601 24.283C192.601 24.8997 192.379 25.4053 191.935 25.8C191.516 26.17 190.985 26.355 190.344 26.355H179.984L180.317 25.726V32.941L180.021 32.645H188.679C189.32 32.645 189.851 32.8547 190.27 33.274C190.714 33.6687 190.936 34.1867 190.936 34.828C190.936 35.4447 190.714 35.9503 190.27 36.345C189.851 36.715 189.32 36.9 188.679 36.9H180.132L180.317 36.604V44.078L180.021 43.745H190.344C190.985 43.745 191.516 43.967 191.935 44.411C192.379 44.8303 192.601 45.3237 192.601 45.891C192.601 46.5077 192.379 47.0133 191.935 47.408C191.516 47.8027 190.985 48 190.344 48H177.949C177.308 48 176.765 47.7903 176.321 47.371C175.902 46.927 175.692 46.3843 175.692 45.743V24.357C175.692 23.7157 175.902 23.1853 176.321 22.766C176.765 22.322 177.308 22.1 177.949 22.1ZM225.07 48C224.379 48 223.824 47.7163 223.405 47.149L214.858 35.901L218.225 32.46L227.068 44.152C227.413 44.6207 227.586 45.1263 227.586 45.669C227.586 46.3597 227.327 46.927 226.809 47.371C226.291 47.7903 225.711 48 225.07 48ZM225.514 21.915C226.106 21.915 226.587 22.1617 226.957 22.655C227.352 23.1237 227.549 23.6047 227.549 24.098C227.549 24.616 227.327 25.097 226.883 25.541L211.38 40.378L211.195 35.087L223.701 22.766C224.268 22.1987 224.873 21.915 225.514 21.915ZM209.53 48C208.839 48 208.284 47.7903 207.865 47.371C207.446 46.927 207.236 46.3843 207.236 45.743V24.357C207.236 23.7157 207.458 23.1853 207.902 22.766C208.346 22.322 208.913 22.1 209.604 22.1C210.295 22.1 210.837 22.322 211.232 22.766C211.651 23.1853 211.861 23.7157 211.861 24.357V45.743C211.861 46.3843 211.651 46.927 211.232 47.371C210.813 47.7903 210.245 48 209.53 48ZM236.106 45.743C236.106 46.3843 235.872 46.927 235.403 47.371C234.934 47.7903 234.392 48 233.775 48C233.084 48 232.529 47.7903 232.11 47.371C231.691 46.927 231.481 46.3843 231.481 45.743V24.357C231.481 23.7157 231.703 23.1853 232.147 22.766C232.591 22.322 233.158 22.1 233.849 22.1C234.441 22.1 234.959 22.322 235.403 22.766C235.872 23.1853 236.106 23.7157 236.106 24.357V45.743ZM261.318 22.1C261.91 22.1 262.391 22.2973 262.761 22.692C263.131 23.0867 263.316 23.58 263.316 24.172V45.743C263.316 46.3843 263.094 46.927 262.65 47.371C262.23 47.7903 261.7 48 261.059 48C260.738 48 260.405 47.9507 260.06 47.852C259.739 47.7287 259.492 47.5683 259.32 47.371L244.779 28.908L245.741 28.316V45.928C245.741 46.52 245.543 47.0133 245.149 47.408C244.779 47.8027 244.285 48 243.669 48C243.077 48 242.596 47.8027 242.226 47.408C241.856 47.0133 241.671 46.52 241.671 45.928V24.357C241.671 23.7157 241.88 23.1853 242.3 22.766C242.744 22.322 243.286 22.1 243.928 22.1C244.273 22.1 244.631 22.174 245.001 22.322C245.371 22.4453 245.642 22.6427 245.815 22.914L259.912 40.896L259.283 41.34V24.172C259.283 23.58 259.468 23.0867 259.838 22.692C260.208 22.2973 260.701 22.1 261.318 22.1ZM279.979 22.1C281.755 22.1 283.333 22.433 284.715 23.099C286.096 23.765 287.255 24.7023 288.193 25.911C289.155 27.095 289.87 28.4763 290.339 30.055C290.832 31.609 291.079 33.274 291.079 35.05C291.079 37.4427 290.647 39.6257 289.784 41.599C288.92 43.5477 287.662 45.1017 286.01 46.261C284.382 47.4203 282.371 48 279.979 48H271.136C270.494 48 269.952 47.7903 269.508 47.371C269.088 46.927 268.879 46.3843 268.879 45.743V24.357C268.879 23.7157 269.088 23.1853 269.508 22.766C269.952 22.322 270.494 22.1 271.136 22.1H279.979ZM279.609 43.745C281.163 43.745 282.433 43.3503 283.42 42.561C284.406 41.747 285.122 40.6863 285.566 39.379C286.034 38.047 286.269 36.604 286.269 35.05C286.269 33.8907 286.133 32.793 285.862 31.757C285.615 30.6963 285.22 29.7713 284.678 28.982C284.135 28.168 283.444 27.5267 282.606 27.058C281.767 26.5893 280.768 26.355 279.609 26.355H273.134L273.504 26.022V44.152L273.282 43.745H279.609ZM314.975 22.1C315.567 22.1 316.048 22.2973 316.418 22.692C316.788 23.0867 316.973 23.58 316.973 24.172V45.743C316.973 46.3843 316.751 46.927 316.307 47.371C315.887 47.7903 315.357 48 314.716 48C314.395 48 314.062 47.9507 313.717 47.852C313.396 47.7287 313.149 47.5683 312.977 47.371L298.436 28.908L299.398 28.316V45.928C299.398 46.52 299.2 47.0133 298.806 47.408C298.436 47.8027 297.942 48 297.326 48C296.734 48 296.253 47.8027 295.883 47.408C295.513 47.0133 295.328 46.52 295.328 45.928V24.357C295.328 23.7157 295.537 23.1853 295.957 22.766C296.401 22.322 296.943 22.1 297.585 22.1C297.93 22.1 298.288 22.174 298.658 22.322C299.028 22.4453 299.299 22.6427 299.472 22.914L313.569 40.896L312.94 41.34V24.172C312.94 23.58 313.125 23.0867 313.495 22.692C313.865 22.2973 314.358 22.1 314.975 22.1ZM324.793 22.1H337.188C337.829 22.1 338.359 22.3097 338.779 22.729C339.223 23.1237 339.445 23.6417 339.445 24.283C339.445 24.8997 339.223 25.4053 338.779 25.8C338.359 26.17 337.829 26.355 337.188 26.355H326.828L327.161 25.726V32.941L326.865 32.645H335.523C336.164 32.645 336.694 32.8547 337.114 33.274C337.558 33.6687 337.78 34.1867 337.78 34.828C337.78 35.4447 337.558 35.9503 337.114 36.345C336.694 36.715 336.164 36.9 335.523 36.9H326.976L327.161 36.604V44.078L326.865 43.745H337.188C337.829 43.745 338.359 43.967 338.779 44.411C339.223 44.8303 339.445 45.3237 339.445 45.891C339.445 46.5077 339.223 47.0133 338.779 47.408C338.359 47.8027 337.829 48 337.188 48H324.793C324.151 48 323.609 47.7903 323.165 47.371C322.745 46.927 322.536 46.3843 322.536 45.743V24.357C322.536 23.7157 322.745 23.1853 323.165 22.766C323.609 22.322 324.151 22.1 324.793 22.1ZM352.035 48.37C350.308 48.37 348.754 48.1603 347.373 47.741C345.991 47.297 344.672 46.5323 343.414 45.447C343.093 45.1757 342.846 44.8673 342.674 44.522C342.501 44.1767 342.415 43.8313 342.415 43.486C342.415 42.9187 342.612 42.4253 343.007 42.006C343.426 41.562 343.944 41.34 344.561 41.34C345.029 41.34 345.449 41.488 345.819 41.784C346.756 42.5487 347.681 43.1283 348.594 43.523C349.531 43.9177 350.678 44.115 352.035 44.115C352.947 44.115 353.786 43.9793 354.551 43.708C355.315 43.412 355.932 43.0297 356.401 42.561C356.869 42.0677 357.104 41.5127 357.104 40.896C357.104 40.156 356.882 39.527 356.438 39.009C355.994 38.491 355.315 38.0593 354.403 37.714C353.49 37.344 352.331 37.0603 350.925 36.863C349.593 36.6657 348.421 36.3697 347.41 35.975C346.398 35.5557 345.547 35.0377 344.857 34.421C344.191 33.7797 343.685 33.0397 343.34 32.201C342.994 31.3377 342.822 30.3757 342.822 29.315C342.822 27.7117 343.229 26.3427 344.043 25.208C344.881 24.0733 346.004 23.21 347.41 22.618C348.816 22.026 350.37 21.73 352.072 21.73C353.675 21.73 355.155 21.9767 356.512 22.47C357.893 22.9387 359.015 23.543 359.879 24.283C360.594 24.8503 360.952 25.504 360.952 26.244C360.952 26.7867 360.742 27.28 360.323 27.724C359.903 28.168 359.41 28.39 358.843 28.39C358.473 28.39 358.14 28.279 357.844 28.057C357.449 27.7117 356.919 27.391 356.253 27.095C355.587 26.7743 354.884 26.5153 354.144 26.318C353.404 26.096 352.713 25.985 352.072 25.985C351.011 25.985 350.111 26.1207 349.371 26.392C348.655 26.6633 348.113 27.0333 347.743 27.502C347.373 27.9707 347.188 28.5133 347.188 29.13C347.188 29.87 347.397 30.4867 347.817 30.98C348.261 31.4487 348.89 31.831 349.704 32.127C350.518 32.3983 351.492 32.645 352.627 32.867C354.107 33.1383 355.402 33.459 356.512 33.829C357.646 34.199 358.584 34.68 359.324 35.272C360.064 35.8393 360.619 36.567 360.989 37.455C361.359 38.3183 361.544 39.379 361.544 40.637C361.544 42.2403 361.1 43.6217 360.212 44.781C359.324 45.9403 358.152 46.8283 356.697 47.445C355.266 48.0617 353.712 48.37 352.035 48.37ZM374.112 48.37C372.385 48.37 370.831 48.1603 369.45 47.741C368.068 47.297 366.749 46.5323 365.491 45.447C365.17 45.1757 364.923 44.8673 364.751 44.522C364.578 44.1767 364.492 43.8313 364.492 43.486C364.492 42.9187 364.689 42.4253 365.084 42.006C365.503 41.562 366.021 41.34 366.638 41.34C367.106 41.34 367.526 41.488 367.896 41.784C368.833 42.5487 369.758 43.1283 370.671 43.523C371.608 43.9177 372.755 44.115 374.112 44.115C375.024 44.115 375.863 43.9793 376.628 43.708C377.392 43.412 378.009 43.0297 378.478 42.561C378.946 42.0677 379.181 41.5127 379.181 40.896C379.181 40.156 378.959 39.527 378.515 39.009C378.071 38.491 377.392 38.0593 376.48 37.714C375.567 37.344 374.408 37.0603 373.002 36.863C371.67 36.6657 370.498 36.3697 369.487 35.975C368.475 35.5557 367.624 35.0377 366.934 34.421C366.268 33.7797 365.762 33.0397 365.417 32.201C365.071 31.3377 364.899 30.3757 364.899 29.315C364.899 27.7117 365.306 26.3427 366.12 25.208C366.958 24.0733 368.081 23.21 369.487 22.618C370.893 22.026 372.447 21.73 374.149 21.73C375.752 21.73 377.232 21.9767 378.589 22.47C379.97 22.9387 381.092 23.543 381.956 24.283C382.671 24.8503 383.029 25.504 383.029 26.244C383.029 26.7867 382.819 27.28 382.4 27.724C381.98 28.168 381.487 28.39 380.92 28.39C380.55 28.39 380.217 28.279 379.921 28.057C379.526 27.7117 378.996 27.391 378.33 27.095C377.664 26.7743 376.961 26.5153 376.221 26.318C375.481 26.096 374.79 25.985 374.149 25.985C373.088 25.985 372.188 26.1207 371.448 26.392C370.732 26.6633 370.19 27.0333 369.82 27.502C369.45 27.9707 369.265 28.5133 369.265 29.13C369.265 29.87 369.474 30.4867 369.894 30.98C370.338 31.4487 370.967 31.831 371.781 32.127C372.595 32.3983 373.569 32.645 374.704 32.867C376.184 33.1383 377.479 33.459 378.589 33.829C379.723 34.199 380.661 34.68 381.401 35.272C382.141 35.8393 382.696 36.567 383.066 37.455C383.436 38.3183 383.621 39.379 383.621 40.637C383.621 42.2403 383.177 43.6217 382.289 44.781C381.401 45.9403 380.229 46.8283 378.774 47.445C377.343 48.0617 375.789 48.37 374.112 48.37Z" fill="#FB9533"/>
</g>
<defs>
<clipPath id="clip0_26_8">
<rect width="400" height="70" fill="white"/>
</clipPath>
</defs>
</svg>
